<?xml version="1.0" encoding="UTF-8" standalone="no"?>
<!-- Created with Inkscape (http://www.inkscape.org/) -->

<svg
   width="43.818771mm"
   height="14.627969mm"
   viewBox="0 0 43.818771 14.627969"
   version="1.1"
   id="svg1"
   xmlns="http://www.w3.org/2000/svg"
   xmlns:svg="http://www.w3.org/2000/svg">
  <defs
     id="defs1" />
  <g
     id="layer1"
     transform="translate(-74.806223,-33.531611)">
    <g
       id="g1">
      <g
         id="g54"
         transform="matrix(0.29249941,0,0,0.29249941,48.919491,23.690143)">
        <path
           d="m 116.10379,33.653125 a 13.105938,21.806637 55.860782 0 0 -12.46426,3.669572 13.105938,21.806637 55.860782 0 0 -14.645364,23.008621 13.105938,21.806637 55.860782 0 0 3.258877,4.146215 12.512448,20.193655 48.368555 0 1 -0.518352,-1.225489 12.512448,20.193655 48.368555 0 1 12.947929,-23.007472 12.512448,20.193655 48.368555 0 1 20.64388,2.345311 12.512448,20.193655 48.368555 0 1 -0.77389,8.986145 13.105938,21.806637 55.860782 0 0 2.43664,-11.906873 13.105938,21.806637 55.860782 0 0 -10.88546,-6.01603 z"
           style="stroke-width:1.19251;stroke-linecap:square;stroke-linejoin:round;paint-order:stroke fill markers"
           id="path38" />
        <path
           d="m 123.55114,53.265817 a 11.47031,18.752179 52.597374 0 0 0.73859,-8.015176 11.47031,18.752179 52.597374 0 0 -19.70251,-2.0919 11.47031,18.752179 52.597374 0 0 -12.35747,20.52148 11.47031,18.752179 52.597374 0 0 0.494705,1.093074 11.917806,20.414099 59.507342 0 0 1.189761,0.61466 11.20537,18.028754 44.848721 0 1 11.494364,-19.919109 11.20537,18.028754 44.848721 0 1 17.96141,2.154383 11.20537,18.028754 44.848721 0 1 0.0314,5.859767 11.917806,20.414099 59.507342 0 0 0.14993,-0.217188 z"
           style="fill:#000000;fill-opacity:1;stroke-width:1.03663;stroke-linecap:square;stroke-linejoin:round;paint-order:stroke fill markers"
           id="path40" />
        <path
           d="m 113.73218,61.782778 a 6.0529252,9.7895733 49.375362 0 0 0.37772,-4.317422 6.0529252,9.7895733 49.375362 0 0 -10.07656,-1.126812 6.0529252,9.7895733 49.375362 0 0 -6.320047,11.05401 6.0529252,9.7895733 49.375362 0 0 0.253011,0.588792 6.3275183,10.592422 56.747775 0 0 0.60849,0.331089 5.8716593,9.4783611 41.508673 0 1 5.878616,-10.729542 5.8716593,9.4783611 41.508673 0 1 9.18611,1.160473 5.8716593,9.4783611 41.508673 0 1 0.0159,3.156396 6.3275183,10.592422 56.747775 0 0 0.0766,-0.116996 z"
           style="fill:#000000;fill-opacity:1;stroke-width:0.544094;stroke-linecap:square;stroke-linejoin:round;paint-order:stroke fill markers"
           id="path40-8" />
        <path
           d="m 113.2405,72.561459 a 6.0529252,9.7895733 49.375362 0 0 0.37772,-4.317422 6.0529252,9.7895733 49.375362 0 0 -10.07656,-1.126812 6.0529252,9.7895733 49.375362 0 0 -6.320046,11.05401 6.0529252,9.7895733 49.375362 0 0 0.253011,0.588792 6.3275183,10.592422 56.747775 0 0 0.60849,0.331089 5.8716593,9.4783611 41.508673 0 1 5.878615,-10.729542 5.8716593,9.4783611 41.508673 0 1 9.18611,1.160473 5.8716593,9.4783611 41.508673 0 1 0.0159,3.156396 6.3275183,10.592422 56.747775 0 0 0.0766,-0.116996 z"
           style="fill:#000000;fill-opacity:1;stroke-width:0.544094;stroke-linecap:square;stroke-linejoin:round;paint-order:stroke fill markers"
           id="path40-8-6" />
        <path
           d="m 114.02635,66.788097 a 6.0529252,9.7895733 49.375362 0 0 0.37773,-4.317422 6.0529252,9.7895733 49.375362 0 0 -10.07657,-1.126812 6.0529252,9.7895733 49.375362 0 0 -6.320044,11.054011 6.0529252,9.7895733 49.375362 0 0 0.253013,0.588792 6.3275183,10.592422 56.747775 0 0 0.608487,0.331089 5.8716593,9.4783611 41.508673 0 1 5.878624,-10.729542 5.8716593,9.4783611 41.508673 0 1 9.1861,1.160472 5.8716593,9.4783611 41.508673 0 1 0.0159,3.156396 6.3275183,10.592422 56.747775 0 0 0.0766,-0.116995 z"
           style="fill:#000000;fill-opacity:1;stroke-width:0.544094;stroke-linecap:square;stroke-linejoin:round;paint-order:stroke fill markers"
           id="path40-8-2" />
        <path
           d="m 119.09074,57.716305 a 9.3046026,14.975832 46.155014 0 0 0.5649,-6.789098 9.3046026,14.975832 46.155014 0 0 -15.069,-1.771899 9.3046026,14.975832 46.155014 0 0 -9.451316,17.382311 9.3046026,14.975832 46.155014 0 0 0.378362,0.925867 9.7894275,16.100193 53.863667 0 0 0.909959,0.520635 8.9643317,14.599429 38.351964 0 1 8.791195,-16.872089 8.9643317,14.599429 38.351964 0 1 13.73736,1.824831 8.9643317,14.599429 38.351964 0 1 0.024,4.963398 9.7894275,16.100193 53.863667 0 0 0.11461,-0.18396 z"
           style="fill:#000000;fill-opacity:1;stroke-width:0.834361;stroke-linecap:square;stroke-linejoin:round;paint-order:stroke fill markers"
           id="path40-9" />
        <path
           d="m 97.038172,83.656357 a 3.8266832,11.156741 23.150726 0 1 5.307878,-7.822441 3.8266832,11.156741 23.150726 0 1 1.45687,-0.778418 2.1771284,5.6422523 32.713956 0 0 -2.08374,0.02985 2.1771284,5.6422523 32.713956 0 0 -4.560268,6.501622 2.1771284,5.6422523 32.713956 0 0 -0.12079,2.069393 z"
           style="fill:#000000;fill-opacity:1;stroke-width:0.303535;stroke-linecap:square;stroke-linejoin:round;paint-order:stroke fill markers"
           id="path53" />
      </g>
      <text
         xml:space="preserve"
         style="font-style:normal;font-variant:normal;font-weight:normal;font-stretch:normal;font-size:4.23333px;font-family:'Bitstream Vera Sans Mono';-inkscape-font-specification:'Bitstream Vera Sans Mono, Normal';font-variant-ligatures:normal;font-variant-caps:normal;font-variant-numeric:normal;font-variant-east-asian:normal;letter-spacing:-0.0185208px;word-spacing:-0.0105833px;writing-mode:tb-rl;fill:#000000;fill-opacity:1;stroke-width:0.601927;stroke-linecap:square;stroke-linejoin:round;paint-order:stroke fill markers"
         x="-43.318501"
         y="85.257385"
         id="text54"
         transform="rotate(-90)"><tspan
           id="tspan54"
           style="font-style:normal;font-variant:normal;font-weight:800;font-stretch:normal;font-size:6.35px;font-family:Cantarell;-inkscape-font-specification:'Cantarell, Ultra-Bold';font-variant-ligatures:normal;font-variant-caps:normal;font-variant-numeric:normal;font-variant-east-asian:normal;stroke-width:0.601927"
           x="-43.318501"
           y="85.257385">mail-storm</tspan></text>
    </g>
  </g>
</svg>
